<?xml version="1.0" standalone="no"?>
<!DOCTYPE svg PUBLIC "-//W3C//DTD SVG 20010904//EN"
 "http://www.w3.org/TR/2001/REC-SVG-20010904/DTD/svg10.dtd">
<svg version="1.0" xmlns="http://www.w3.org/2000/svg"
 width="299.000000pt" height="299.000000pt" viewBox="0 0 299.000000 299.000000"
 preserveAspectRatio="xMidYMid meet">
<metadata>
Created by potrace 1.14, written by Peter Selinger 2001-2017
</metadata>
<g transform="translate(0.000000,299.000000) scale(0.100000,-0.100000)"
fill="#000000" stroke="none">
<path d="M1379 2796 c-2 -2 -34 -7 -71 -10 -126 -13 -319 -74 -438 -139 -279
-152 -494 -398 -603 -692 -26 -68 -50 -163 -65 -248 -8 -49 -7 -268 1 -312 3
-16 9 -53 12 -80 3 -28 9 -65 14 -83 6 -18 10 -33 10 -35 -3 -28 49 -173 94
-267 23 -47 41 -91 40 -98 0 -7 2 -11 5 -8 9 9 62 -76 55 -88 -3 -6 -3 -8 2
-4 4 4 26 -16 49 -44 57 -71 121 -135 188 -190 31 -25 54 -49 50 -53 -4 -5 -2
-5 5 -2 6 4 17 1 25 -6 7 -7 21 -16 31 -20 10 -4 16 -11 12 -16 -3 -5 0 -13 6
-17 8 -5 9 -3 4 6 -4 7 -4 11 1 8 44 -20 64 -33 64 -40 0 -5 4 -7 9 -3 5 3 17
-2 25 -11 9 -8 16 -12 16 -8 0 5 5 3 12 -4 7 -7 20 -12 31 -12 11 0 15 -4 11
-11 -4 -7 -1 -10 7 -7 8 3 23 0 34 -5 11 -6 27 -12 35 -13 8 -2 16 -8 18 -14
2 -5 7 -8 12 -5 4 2 29 -2 56 -9 61 -18 108 -27 154 -29 19 -1 38 -6 42 -12 5
-7 8 -6 8 0 0 6 8 12 18 13 9 1 26 3 37 4 11 2 25 10 32 18 6 8 14 12 18 8 4
-3 27 15 53 40 25 26 39 36 29 22 -47 -68 -56 -106 -24 -95 34 11 77 12 77 2
0 -9 2 -9 8 -1 6 10 91 27 142 29 8 0 21 4 28 9 21 13 62 15 56 2 -3 -6 1 -3
10 8 8 10 19 15 25 12 5 -4 13 -1 16 5 4 5 13 8 20 5 8 -3 15 0 17 5 2 6 10
11 18 13 8 1 37 12 64 24 56 25 60 26 50 10 -4 -7 -3 -8 5 -4 6 4 9 11 6 16
-4 7 48 38 68 39 4 0 17 10 29 21 12 11 28 18 35 16 7 -3 12 -2 10 2 -1 4 3 9
8 12 6 2 20 15 33 27 13 13 28 21 33 17 5 -3 8 -1 7 3 -2 5 20 29 47 53 28 23
54 49 58 57 5 7 12 11 16 9 5 -3 13 6 20 20 7 16 16 22 24 18 6 -4 9 -4 5 1
-4 4 10 29 31 54 86 104 179 273 217 398 10 35 23 63 27 63 5 0 6 4 3 8 -2 4
0 29 6 56 6 30 13 44 18 36 23 -38 36 408 14 492 -21 80 -120 304 -175 398
-163 275 -479 505 -789 575 -41 9 -102 26 -135 37 -42 15 -92 22 -166 24 -59
2 -108 1 -110 0z"/>
</g>
</svg>
